<?xml version="1.0" encoding="UTF-8" standalone="no"?>
<!-- Created with Inkscape (http://www.inkscape.org/) -->

<svg
   xmlns:dc="http://purl.org/dc/elements/1.1/"
   xmlns:cc="http://creativecommons.org/ns#"
   xmlns:rdf="http://www.w3.org/1999/02/22-rdf-syntax-ns#"
   xmlns:svg="http://www.w3.org/2000/svg"
   xmlns="http://www.w3.org/2000/svg"
   xmlns:sodipodi="http://sodipodi.sourceforge.net/DTD/sodipodi-0.dtd"
   xmlns:inkscape="http://www.inkscape.org/namespaces/inkscape"
   width="210mm"
   height="297mm"
   viewBox="0 0 210 297"
   version="1.1"
   id="svg4134"
   inkscape:version="0.92.5 (2060ec1f9f, 2020-04-08)"
   sodipodi:docname="watch_bleue.svg">
  <defs
     id="defs4128" />
  <sodipodi:namedview
     id="base"
     pagecolor="#ffffff"
     bordercolor="#666666"
     borderopacity="1.0"
     inkscape:pageopacity="0.0"
     inkscape:pageshadow="2"
     inkscape:zoom="0.35"
     inkscape:cx="-81.428571"
     inkscape:cy="560"
     inkscape:document-units="mm"
     inkscape:current-layer="layer1"
     showgrid="false"
     inkscape:window-width="1848"
     inkscape:window-height="1016"
     inkscape:window-x="72"
     inkscape:window-y="493"
     inkscape:window-maximized="1" />
  <metadata
     id="metadata4131">
    <rdf:RDF>
      <cc:Work
         rdf:about="">
        <dc:format>image/svg+xml</dc:format>
        <dc:type
           rdf:resource="http://purl.org/dc/dcmitype/StillImage" />
        <dc:title></dc:title>
      </cc:Work>
    </rdf:RDF>
  </metadata>
  <g
     inkscape:label="Calque 1"
     inkscape:groupmode="layer"
     id="layer1">
    <path
       d="m 104.99916,159.17032 v 0 c 2.53728,0 4.61454,-2.07556 4.61454,-4.61287 v -12.11491 c 0,-2.53728 -2.07726,-4.61286 -4.61454,-4.61286 v 0 c -2.53728,0 -4.61286,2.07558 -4.61286,4.61286 v 12.11491 c 0,2.53731 2.07558,4.61287 4.61286,4.61287 v 0"
       style="fill:#454648;fill-opacity:1;fill-rule:evenodd;stroke:none;stroke-width:0.08318972"
       id="path44"
       inkscape:connector-curvature="0" />
    <path
       d="m 104.99968,164.30979 h 6.2e-4 c 1.75364,0 3.19034,-1.4342 3.19034,-3.1895 v -25.23976 c 0,-1.7553 -1.4367,-3.19032 -3.19034,-3.19032 h -6.2e-4 c -1.75615,0 -3.19032,1.43502 -3.19032,3.19032 v 25.23976 c 0,1.7553 1.43417,3.1895 3.19032,3.1895 v 0"
       style="fill:#454648;fill-opacity:1;fill-rule:evenodd;stroke:none;stroke-width:0.08318972"
       id="path46"
       inkscape:connector-curvature="0" />
    <path
       d="m 104.99916,176.88184 v 0 c 1.7553,0 3.192,-1.43586 3.192,-3.19117 v -50.38134 c 0,-1.7553 -1.4367,-3.19116 -3.192,-3.19116 v 0 c -1.7553,0 -3.19032,1.43586 -3.19032,3.19116 v 50.38134 c 0,1.75531 1.43502,3.19117 3.19032,3.19117 v 0"
       style="fill:#454648;fill-opacity:1;fill-rule:evenodd;stroke:none;stroke-width:0.08318972"
       id="path48"
       inkscape:connector-curvature="0" />
    <path
       d="m 160.96833,227.76445 c -1.06399,0.70214 -2.02401,1.43087 -2.90996,2.17958 -8.59849,10.02435 -8.78485,21.0703 -9.50194,30.13716 -0.14054,3.09132 -0.44175,6.00046 -1.3094,8.57684 -1.51989,5.17773 -4.84497,8.85722 -13.12068,9.97778 -0.55072,0.0707 -1.10228,0.14054 -1.65383,0.20704 -0.89177,0.13064 -1.83847,0.23627 -2.83426,0.31946 -15.80105,1.66711 -33.475555,1.66711 -49.276605,0 -0.99412,-0.0839 -1.94249,-0.18889 -2.83427,-0.31946 -0.55239,-0.0665 -1.10311,-0.13653 -1.65298,-0.20704 -8.276552,-1.11974 -11.601638,-4.79923 -13.123177,-9.97778 -0.867675,-2.57638 -1.166333,-5.48552 -1.308575,-8.57684 -0.715434,-9.06771 -0.902623,-20.11281 -9.501109,-30.13716 -0.885951,-0.74871 -1.846796,-1.47744 -2.909961,-2.17958 -2.126329,-1.41172 -4.331703,-3.44405 -6.295793,-5.81329 -3.404131,-2.69867 -5.00054,-6.87811 -6.05123,-11.54007 -0.232984,-1.07649 -0.361879,-2.14131 -0.361879,-3.17785 v -0.94254 -1.16134 -1.96993 c 0,-38.66159 0,-77.32234 0,-115.982271 0,-6.349039 4.732656,-12.67228 9.889588,-16.000715 0.160589,-0.100692 0.320282,-0.203035 0.477522,-0.306958 0.124038,-0.09244 0.246236,-0.183934 0.371029,-0.274534 1.874245,-1.344348 3.512251,-2.801816 4.945619,-4.353327 6.560352,-7.439652 9.178328,-18.305885 10.008556,-28.332741 0.114842,-1.563961 0.199734,-3.130422 0.26871,-4.691907 0.01415,-0.460025 0.02665,-0.9159 0.03584,-1.368473 0,-9.037722 4.248485,-13.287052 12.705554,-13.823625 0.779486,-0.0674 1.560636,-0.132267 2.340966,-0.194664 18.06715,-1.65714 37.200795,-1.65714 55.267915,0 0.78033,0.0624 1.56149,0.127269 2.34097,0.194664 8.45539,0.536573 12.70555,4.785903 12.70555,13.823625 0.009,0.452573 0.0212,0.908448 0.0358,1.368473 0.0698,1.561485 0.15398,3.127946 0.26871,4.691907 1.02491,12.376123 4.41487,25.125797 14.95335,32.686068 0.12403,0.09055 0.24791,0.182284 0.37185,0.274534 0.15729,0.103994 0.31696,0.206337 0.47752,0.306958 5.15693,3.328435 9.88959,9.651676 9.88959,16.000715 0,38.659931 0,77.320681 0,115.982271 v 1.96993 1.16134 0.94254 c 0,1.03654 -0.12734,2.10221 -0.36188,3.17785 -1.05899,7.3756 -6.25419,13.30784 -12.34702,17.35336 v 0"
       style="fill:#70b4e0;fill-opacity:1;fill-rule:evenodd;stroke:none;stroke-width:0.08318972"
       id="path50"
       inkscape:connector-curvature="0" />
    <path
       d="m 160.96837,227.76398 c -3.60127,2.37507 -7.95625,2.57058 -12.23053,2.57058 H 61.579116 c -4.371603,0 -8.194185,-0.61979 -11.46685,-1.82437 -0.349404,-0.25206 -0.709609,-0.5008 -1.080638,-0.74621 -6.093653,-4.04552 -11.287183,-9.97776 -12.347023,-17.35336 -0.232984,-1.07649 -0.361879,-2.14131 -0.361879,-3.17785 v -0.94254 -1.16134 -1.97076 c 0,-38.66076 0,-77.32151 0,-115.981435 0,-6.349039 4.732656,-12.67228 9.889588,-16.000715 0.160589,-0.100692 0.320282,-0.203035 0.477522,-0.306958 0.124038,-0.09244 0.246236,-0.183934 0.371029,-0.274534 4.94062,-3.543874 8.887971,-3.929051 15.060669,-3.929051 h 86.299346 c 6.5437,0 9.40209,0.260385 14.51742,3.929051 0.12404,0.09055 0.24792,0.182284 0.37186,0.274534 0.15729,0.103994 0.31696,0.206337 0.47752,0.306958 5.15693,3.328435 9.88959,9.651676 9.88959,16.000715 0,38.659925 0,77.320675 0,115.981435 v 1.97076 1.16134 0.94254 c 0,1.03654 -0.12734,2.10221 -0.36188,3.17785 -1.05901,7.3756 -6.25419,13.30784 -12.34702,17.35336 v 0"
       style="fill:#666867;fill-opacity:1;fill-rule:evenodd;stroke:none;stroke-width:0.08318972"
       id="path52"
       inkscape:connector-curvature="0" />
    <path
       d="m 51.782337,225.29822 c 3.123773,1.07396 6.511256,1.44916 9.796419,1.44916 h 87.158724 c 3.41908,0 7.33398,-0.0365 10.24811,-1.97161 5.16444,-3.4274 9.86632,-8.52361 10.77892,-14.8743 l 0.0189,-0.12805 0.0257,-0.12805 c 0.1738,-0.78948 0.28201,-1.60306 0.28201,-2.41251 v -4.07462 c 0,-38.66075 0,-77.32151 0,-115.981435 0,-5.086235 -4.14119,-10.338813 -8.24743,-12.985912 -0.16459,-0.107295 -0.33193,-0.212939 -0.49829,-0.320282 l -0.0924,-0.06155 -0.0891,-0.06579 c -0.10564,-0.079 -0.21035,-0.158938 -0.31863,-0.236261 -4.37078,-3.138747 -6.89393,-3.25439 -12.42437,-3.25439 H 62.121362 c -5.211003,0 -8.755726,0.228739 -12.965962,3.25439 -0.108946,0.07735 -0.213883,0.157287 -0.320282,0.236261 l -0.08819,0.06579 -0.09315,0.06155 c -0.165542,0.107295 -0.331931,0.21294 -0.498322,0.320282 -4.105415,2.647099 -8.246581,7.899677 -8.246581,12.985912 0,38.659925 0,77.320685 0,115.981435 v 4.07462 c 0,0.81028 0.108238,1.62388 0.280335,2.41419 l 0.02735,0.12639 0.01886,0.12899 c 0.890974,6.20845 5.651078,11.47185 10.77891,14.87348 0.257886,0.17144 0.514947,0.34523 0.768658,0.52245 v 0"
       style="fill:#100f0d;fill-opacity:1;fill-rule:evenodd;stroke:none;stroke-width:0.08318972"
       id="path54"
       inkscape:connector-curvature="0" />
    <path
       d="m 123.72675,114.45707 1.72389,0.99569 4.89797,-8.48414 -1.72389,-0.9957 z m 14.51208,13.92435 0.99569,1.72493 8.48415,-4.90004 -0.99674,-1.72285 z m 5.60547,19.31602 v 1.99038 h 9.79901 v -1.99038 z m -4.80189,19.52881 -0.99674,1.72594 8.48518,4.89796 0.99674,-1.72389 z m -13.92436,14.51413 -1.72285,0.9957 4.89692,8.4831 1.72493,-0.99466 z m -19.31498,5.60549 h -1.99142 v 9.79694 h 1.99142 z m -19.530882,-4.80295 -1.72387,-0.99466 -4.89796,8.48414 1.72389,0.99466 z m -14.51309,-13.92433 -0.994685,-1.72392 -8.484117,4.89796 0.995699,1.72493 z m -5.604459,-19.31501 v -1.99142 h -9.797951 v 1.99142 z m 4.801915,-19.53086 0.994661,-1.72389 -8.483103,-4.89796 -0.996736,1.72389 z m 13.923314,-14.51207 1.72491,-0.9957 -4.89794,-8.48414 -1.72493,0.9957 z m 19.316022,-5.60651 h 1.99038 v -9.796945 h -1.99038 v 9.796945 0"
       style="fill:#70b4e0;fill-opacity:1;fill-rule:nonzero;stroke:none;stroke-width:0.10328873"
       id="path56"
       inkscape:connector-curvature="0" />
  </g>
</svg>
