<?xml version="1.0" encoding="UTF-8" standalone="no"?>
<!-- Created with Inkscape (http://www.inkscape.org/) -->

<svg
   xmlns:dc="http://purl.org/dc/elements/1.1/"
   xmlns:cc="http://creativecommons.org/ns#"
   xmlns:rdf="http://www.w3.org/1999/02/22-rdf-syntax-ns#"
   xmlns:svg="http://www.w3.org/2000/svg"
   xmlns="http://www.w3.org/2000/svg"
   xmlns:sodipodi="http://sodipodi.sourceforge.net/DTD/sodipodi-0.dtd"
   xmlns:inkscape="http://www.inkscape.org/namespaces/inkscape"
   width="210mm"
   height="297mm"
   viewBox="0 0 210 297"
   version="1.1"
   id="svg4029"
   inkscape:version="0.92.5 (2060ec1f9f, 2020-04-08)"
   sodipodi:docname="watch_bleu.svg">
  <defs
     id="defs4023" />
  <sodipodi:namedview
     id="base"
     pagecolor="#ffffff"
     bordercolor="#666666"
     borderopacity="1.0"
     inkscape:pageopacity="0.0"
     inkscape:pageshadow="2"
     inkscape:zoom="0.35"
     inkscape:cx="-81.428571"
     inkscape:cy="560"
     inkscape:document-units="mm"
     inkscape:current-layer="layer1"
     showgrid="false"
     inkscape:window-width="1848"
     inkscape:window-height="1016"
     inkscape:window-x="72"
     inkscape:window-y="493"
     inkscape:window-maximized="1" />
  <metadata
     id="metadata4026">
    <rdf:RDF>
      <cc:Work
         rdf:about="">
        <dc:format>image/svg+xml</dc:format>
        <dc:type
           rdf:resource="http://purl.org/dc/dcmitype/StillImage" />
        <dc:title></dc:title>
      </cc:Work>
    </rdf:RDF>
  </metadata>
  <g
     inkscape:label="Calque 1"
     inkscape:groupmode="layer"
     id="layer1">
    <path
       d="m 104.99901,158.83402 h 0.002 c 2.45731,0 4.46749,-2.01016 4.46749,-4.46747 v -11.73306 c 0,-2.45734 -2.01018,-4.4675 -4.46749,-4.4675 h -0.002 c -2.45651,0 -4.4675,2.01016 -4.4675,4.4675 v 11.73306 c 0,2.45731 2.01099,4.46747 4.4675,4.46747 v 0"
       style="fill:#454648;fill-opacity:1;fill-rule:evenodd;stroke:none;stroke-width:0.08056768"
       id="path72"
       inkscape:connector-curvature="0" />
    <path
       d="m 105.00079,163.81148 v 0 c 1.70079,0 3.08979,-1.38899 3.08979,-3.08896 v -24.44424 c 0,-1.69997 -1.389,-3.08976 -3.08979,-3.08976 v 0 c -1.69915,0 -3.09136,1.38979 -3.09136,3.08976 v 24.44424 c 0,1.69997 1.39221,3.08896 3.09136,3.08896 v 0"
       style="fill:#454648;fill-opacity:1;fill-rule:evenodd;stroke:none;stroke-width:0.08056768"
       id="path74"
       inkscape:connector-curvature="0" />
    <path
       d="m 105.00081,175.98727 v 0 c 1.69998,0 3.08976,-1.39061 3.08976,-3.09058 V 124.1033 c 0,-1.69998 -1.38978,-3.09057 -3.08976,-3.09057 v 0 c -1.69997,0 -3.09138,1.39059 -3.09138,3.09057 v 48.79339 c 0,1.69997 1.39141,3.09058 3.09138,3.09058 v 0"
       style="fill:#454648;fill-opacity:1;fill-rule:evenodd;stroke:none;stroke-width:0.08056768"
       id="path76"
       inkscape:connector-curvature="0" />
    <path
       d="m 159.20632,225.26615 c -1.03125,0.67998 -1.96261,1.38576 -2.81904,2.11087 -8.32667,9.7084 -8.51038,20.40617 -9.20327,29.18725 -0.13611,2.99389 -0.427,5.81133 -1.26651,8.30651 -1.4744,5.01453 -4.69306,8.57805 -12.71035,9.66329 -0.53256,0.0685 -1.06592,0.13612 -1.60008,0.20052 -0.86449,0.12652 -1.78135,0.22882 -2.74413,0.30939 -15.30464,1.61456 -32.422064,1.61456 -47.725084,0 -0.96279,-0.0813 -1.88124,-0.18293 -2.74493,-0.30939 -0.53336,-0.0644 -1.06672,-0.13223 -1.60088,-0.20052 -8.01569,-1.08444 -11.23597,-4.64796 -12.70793,-9.66329 -0.84033,-2.49518 -1.13117,-5.31262 -1.26733,-8.30651 -0.69451,-8.78188 -0.87578,-19.47885 -9.203248,-29.18725 -0.856451,-0.72511 -1.78861,-1.43089 -2.818265,-2.11087 -2.060109,-1.36725 -4.193551,-3.33551 -6.097356,-5.63007 -3.296038,-2.61361 -4.843729,-6.66134 -5.858881,-11.17634 -0.227239,-1.04256 -0.351273,-2.07381 -0.351273,-3.07771 v -0.91281 -1.12473 -1.90785 c 0,-37.44301 0,-74.88522 0,-112.326634 0,-6.148925 4.581867,-12.272888 9.577081,-15.496392 0.157126,-0.09752 0.310187,-0.196636 0.463247,-0.297306 0.119215,-0.08952 0.239298,-0.178137 0.360134,-0.265858 1.814394,-1.301976 3.400773,-2.713529 4.788141,-4.216115 6.35358,-7.205163 8.88904,-17.728904 9.69392,-27.439748 0.10962,-1.514667 0.19252,-3.031755 0.26022,-4.544001 0.0137,-0.445548 0.0249,-0.887054 0.0347,-1.325339 0,-8.752877 4.1146,-12.868272 12.30429,-13.387934 0.75653,-0.06525 1.51065,-0.128099 2.26798,-0.188529 17.49689,-1.604907 36.027464,-1.604907 53.525954,0 0.75571,0.06043 1.51145,0.12328 2.26636,0.188529 8.19131,0.519662 12.30511,4.635057 12.30511,13.387934 0.009,0.438285 0.0206,0.879791 0.0354,1.325339 0.066,1.512246 0.14914,3.029334 0.25942,4.544001 0.99341,11.986064 4.27572,24.33386 14.48284,31.655863 0.12081,0.08793 0.24089,0.176538 0.35933,0.265858 0.15302,0.100716 0.30697,0.199833 0.46247,0.297306 4.99519,3.223504 9.57788,9.347467 9.57788,15.496392 0,37.441414 0,74.883624 0,112.326634 v 1.90785 1.12473 0.91281 c 0,1.0039 -0.12241,2.03595 -0.35047,3.07771 -1.02643,7.14311 -6.05707,12.8884 -11.95544,16.80641 v 0"
       style="fill:#bde260;fill-opacity:1;fill-rule:evenodd;stroke:none;stroke-width:0.08056768"
       id="path78"
       inkscape:connector-curvature="0" />
    <path
       d="m 159.20632,225.26569 c -3.49018,2.3002 -7.7079,2.48953 -11.84666,2.48953 H 62.947311 c -4.23384,0 -7.935918,-0.60023 -11.105455,-1.76685 -0.338392,-0.24411 -0.686444,-0.48501 -1.046578,-0.72268 -5.900766,-3.91801 -10.931424,-9.6633 -11.956237,-16.80641 -0.227239,-1.04256 -0.351273,-2.07381 -0.351273,-3.07771 v -0.91281 -1.12473 -1.90865 c 0,-37.44221 0,-74.88442 0,-112.325831 0,-6.148925 4.581867,-12.272888 9.577081,-15.496392 0.157126,-0.09752 0.310187,-0.196636 0.463247,-0.297306 0.119215,-0.08952 0.239298,-0.178137 0.360134,-0.265858 4.78492,-3.432198 8.607855,-3.805212 14.584371,-3.805212 h 83.579289 c 6.33826,0 9.10737,0.252178 14.06068,3.805212 0.12081,0.08793 0.24089,0.176538 0.35931,0.265858 0.15302,0.100716 0.30697,0.199833 0.46247,0.297306 4.99519,3.223504 9.57788,9.347467 9.57788,15.496392 0,37.441411 0,74.883621 0,112.325831 v 1.90865 1.12473 0.91281 c 0,1.0039 -0.12241,2.03595 -0.35047,3.07771 -1.02641,7.14311 -6.05707,12.8884 -11.95544,16.80641 v 0"
       style="fill:#666867;fill-opacity:1;fill-rule:evenodd;stroke:none;stroke-width:0.08056768"
       id="path80"
       inkscape:connector-curvature="0" />
    <path
       d="m 53.460393,222.87764 c 3.023716,1.04011 6.306852,1.40347 9.486052,1.40347 H 147.3588 c 3.31052,0 7.10123,-0.0354 9.92433,-1.90945 5.00243,-3.31938 9.55694,-8.25496 10.43915,-14.40549 l 0.0183,-0.12401 0.0274,-0.12401 c 0.16603,-0.76459 0.2707,-1.55255 0.2707,-2.33647 v -3.94619 c 0,-37.44223 0,-74.88445 0,-112.32586 0,-4.9259 -4.00904,-10.012945 -7.98666,-12.576611 -0.16124,-0.103913 -0.32227,-0.206228 -0.48262,-0.310187 l -0.0895,-0.05961 -0.0863,-0.06372 c -0.10323,-0.07651 -0.20463,-0.153929 -0.30856,-0.228815 -4.23384,-3.039817 -6.67827,-3.151792 -12.03359,-3.151792 H 63.472085 c -5.04516,0 -8.479758,0.221529 -12.557292,3.151792 -0.103228,0.07491 -0.207141,0.15233 -0.308565,0.228815 l -0.0877,0.06372 -0.08953,0.05961 c -0.159638,0.103913 -0.321468,0.206228 -0.482614,0.310187 -3.975995,2.563666 -7.985061,7.650711 -7.985061,12.576611 0,37.44141 0,74.88363 0,112.32586 v 3.94619 c 0,0.78474 0.103229,1.57268 0.270723,2.33807 l 0.02741,0.12241 0.01827,0.12493 c 0.862891,6.01279 5.472963,11.11029 10.437551,14.40471 0.249757,0.16603 0.498715,0.33435 0.746052,0.50595 v 0"
       style="fill:#100f0d;fill-opacity:1;fill-rule:evenodd;stroke:none;stroke-width:0.08056768"
       id="path82"
       inkscape:connector-curvature="0" />
    <path
       d="m 142.18938,147.73172 v 1.90538 h 9.3767 v -1.90538 z m -4.59987,18.69505 -0.9512,1.65226 8.12092,4.68884 0.95221,-1.65028 z m -13.32887,13.89446 -1.65129,0.95321 4.68885,8.12093 1.6503,-0.95221 z m -18.49138,5.36617 h -1.90638 v 9.37868 h 1.90638 z m -18.696031,-4.59788 -1.65128,-0.95219 -4.68884,8.12191 1.6503,0.95221 z m -13.892489,-13.32988 -0.95418,-1.65028 -8.12291,4.68884 0.954179,1.65126 z m -5.36716,-18.49037 v -1.90639 h -9.379661 v 1.90639 z m 4.595889,-18.69703 0.9542,-1.65028 -8.12193,-4.68884 -0.95319,1.6503 z m 31.821241,-19.25963 h 1.90641 v -9.37869 h -1.90641 z m 18.69703,4.59785 1.6503,0.95322 4.68884,-8.12193 -1.64929,-0.95319 z m -37.18741,0.7693 1.65227,-0.95321 -4.6908,-8.12191 -1.65031,0.95319 z m 51.08091,12.5606 0.95219,1.65127 8.12291,-4.69083 -0.95221,-1.6493 -8.12289,4.68886 v 0"
       style="fill:#bde260;fill-opacity:1;fill-rule:nonzero;stroke:none;stroke-width:0.098879"
       id="path84"
       inkscape:connector-curvature="0" />
  </g>
</svg>
